<svg width="131" height="32" viewBox="0 0 131 32" fill="none" xmlns="http://www.w3.org/2000/svg">
<rect x="0.25" y="0.25" width="31.5" height="31.5" rx="5.08333" fill="#00291D"/>
<path d="M23.8868 8.16065C23.7746 8.03075 23.5974 7.9717 23.4026 8.01303L9.49406 11.7448C9.33168 11.795 9.20768 11.9219 9.1634 12.0873C9.12206 12.2497 9.17227 12.4238 9.29036 12.5419L11.2861 14.5377L8.33674 15.3319C8.17436 15.3791 8.05037 15.509 8.00904 15.6744C7.9677 15.8368 8.01789 16.0109 8.13598 16.129L15.8711 23.8583C15.9627 23.9498 16.0867 24 16.2106 24C16.249 24 16.2904 23.9941 16.3288 23.9852C16.4911 23.9439 16.621 23.817 16.6742 23.6428L17.4566 20.7081L19.4641 22.7187C19.5557 22.8073 19.6767 22.8574 19.8007 22.8574C19.8391 22.8574 19.8804 22.8515 19.9188 22.8427C20.0841 22.8013 20.2111 22.6773 20.2642 22.5032L23.9871 8.6035C24.0314 8.44998 23.993 8.2817 23.8868 8.16065ZM16.0483 22.9165L9.07778 15.9519L11.9327 15.1843L16.81 20.0616L16.0483 22.9165ZM19.6413 21.7739L17.6927 19.8254L19.4966 13.0911C19.5498 12.9228 19.5025 12.7397 19.3785 12.6157C19.2545 12.4917 19.0744 12.4445 18.915 12.4917L12.1689 14.3015L10.2321 12.3648L23.0837 8.91645L19.6413 21.7739Z" fill="#00B37E"/>
<rect x="0.25" y="0.25" width="31.5" height="31.5" rx="5.08333" stroke="url(#paint0_linear_299_645)" stroke-width="0.5"/>
<path d="M50.1016 9.625V21H47.7656V9.625H50.1016ZM53.6016 9.625V11.4609H44.3203V9.625H53.6016ZM56.5 14.3906V21H54.25V12.5469H56.3672L56.5 14.3906ZM59.0469 12.4922L59.0078 14.5781C58.8984 14.5625 58.7656 14.5495 58.6094 14.5391C58.4583 14.5234 58.3203 14.5156 58.1953 14.5156C57.8776 14.5156 57.6016 14.5573 57.3672 14.6406C57.138 14.7188 56.9453 14.8359 56.7891 14.9922C56.638 15.1484 56.5234 15.3385 56.4453 15.5625C56.3724 15.7865 56.3307 16.0417 56.3203 16.3281L55.8672 16.1875C55.8672 15.6406 55.9219 15.138 56.0312 14.6797C56.1406 14.2161 56.2995 13.8125 56.5078 13.4688C56.7214 13.125 56.9818 12.8594 57.2891 12.6719C57.5964 12.4844 57.9479 12.3906 58.3438 12.3906C58.4688 12.3906 58.5964 12.401 58.7266 12.4219C58.8568 12.4375 58.9635 12.4609 59.0469 12.4922ZM62.4844 12.5469V21H60.2266V12.5469H62.4844ZM60.0859 10.3438C60.0859 10.0156 60.2005 9.74479 60.4297 9.53125C60.6589 9.31771 60.9661 9.21094 61.3516 9.21094C61.7318 9.21094 62.0365 9.31771 62.2656 9.53125C62.5 9.74479 62.6172 10.0156 62.6172 10.3438C62.6172 10.6719 62.5 10.9427 62.2656 11.1562C62.0365 11.3698 61.7318 11.4766 61.3516 11.4766C60.9661 11.4766 60.6589 11.3698 60.4297 11.1562C60.2005 10.9427 60.0859 10.6719 60.0859 10.3438ZM66.7188 9V21H64.4609V9H66.7188ZM70.7734 9V21H68.5234V9H70.7734ZM70.4531 16.4766H69.8359C69.8411 15.888 69.9193 15.3464 70.0703 14.8516C70.2214 14.3516 70.4375 13.9193 70.7188 13.5547C71 13.1849 71.3359 12.8984 71.7266 12.6953C72.1224 12.4922 72.5599 12.3906 73.0391 12.3906C73.4557 12.3906 73.8333 12.4505 74.1719 12.5703C74.5156 12.6849 74.8099 12.8724 75.0547 13.1328C75.3047 13.388 75.4974 13.724 75.6328 14.1406C75.7682 14.5573 75.8359 15.0625 75.8359 15.6562V21H73.5703V15.6406C73.5703 15.2656 73.5156 14.9714 73.4062 14.7578C73.3021 14.5391 73.1484 14.3854 72.9453 14.2969C72.7474 14.2031 72.5026 14.1562 72.2109 14.1562C71.888 14.1562 71.612 14.2161 71.3828 14.3359C71.1589 14.4557 70.9792 14.6224 70.8438 14.8359C70.7083 15.0443 70.6094 15.2891 70.5469 15.5703C70.4844 15.8516 70.4531 16.1536 70.4531 16.4766ZM82.1094 19.0938V15.3281C82.1094 15.0573 82.0651 14.8255 81.9766 14.6328C81.888 14.4349 81.75 14.2812 81.5625 14.1719C81.3802 14.0625 81.1432 14.0078 80.8516 14.0078C80.6016 14.0078 80.3854 14.0521 80.2031 14.1406C80.0208 14.224 79.8802 14.3464 79.7812 14.5078C79.6823 14.6641 79.6328 14.849 79.6328 15.0625H77.3828C77.3828 14.7031 77.4661 14.362 77.6328 14.0391C77.7995 13.7161 78.0417 13.4323 78.3594 13.1875C78.6771 12.9375 79.0547 12.7422 79.4922 12.6016C79.9349 12.4609 80.4297 12.3906 80.9766 12.3906C81.6328 12.3906 82.2161 12.5 82.7266 12.7188C83.237 12.9375 83.638 13.2656 83.9297 13.7031C84.2266 14.1406 84.375 14.6875 84.375 15.3438V18.9609C84.375 19.4245 84.4036 19.8047 84.4609 20.1016C84.5182 20.3932 84.6016 20.6484 84.7109 20.8672V21H82.4375C82.3281 20.7708 82.2448 20.4844 82.1875 20.1406C82.1354 19.7917 82.1094 19.4427 82.1094 19.0938ZM82.4062 15.8516L82.4219 17.125H81.1641C80.8672 17.125 80.6094 17.1589 80.3906 17.2266C80.1719 17.2943 79.9922 17.3906 79.8516 17.5156C79.7109 17.6354 79.6068 17.776 79.5391 17.9375C79.4766 18.099 79.4453 18.276 79.4453 18.4688C79.4453 18.6615 79.4896 18.8359 79.5781 18.9922C79.6667 19.1432 79.7943 19.263 79.9609 19.3516C80.1276 19.4349 80.3229 19.4766 80.5469 19.4766C80.8854 19.4766 81.1797 19.4089 81.4297 19.2734C81.6797 19.138 81.8724 18.9714 82.0078 18.7734C82.1484 18.5755 82.2214 18.388 82.2266 18.2109L82.8203 19.1641C82.737 19.3776 82.6224 19.599 82.4766 19.8281C82.3359 20.0573 82.1562 20.2734 81.9375 20.4766C81.7188 20.6745 81.4557 20.8385 81.1484 20.9688C80.8411 21.0938 80.4766 21.1562 80.0547 21.1562C79.5182 21.1562 79.0312 21.0495 78.5938 20.8359C78.1615 20.6172 77.8177 20.3177 77.5625 19.9375C77.3125 19.5521 77.1875 19.1146 77.1875 18.625C77.1875 18.1823 77.2708 17.7891 77.4375 17.4453C77.6042 17.1016 77.849 16.8125 78.1719 16.5781C78.5 16.3385 78.9089 16.1589 79.3984 16.0391C79.888 15.9141 80.4557 15.8516 81.1016 15.8516H82.4062Z" fill="#E1E1E6"/>
<path d="M92.7266 9.625V21H90.3906V9.625H92.7266ZM100.133 12.5469H102.172V20.7188C102.172 21.4896 102 22.1432 101.656 22.6797C101.318 23.2214 100.844 23.6302 100.234 23.9062C99.625 24.1875 98.9167 24.3281 98.1094 24.3281C97.7552 24.3281 97.3802 24.2812 96.9844 24.1875C96.5938 24.0938 96.2188 23.9479 95.8594 23.75C95.5052 23.5521 95.2083 23.3021 94.9688 23L95.9609 21.6719C96.2214 21.974 96.5234 22.2083 96.8672 22.375C97.2109 22.5469 97.5911 22.6328 98.0078 22.6328C98.4141 22.6328 98.7578 22.5573 99.0391 22.4062C99.3203 22.2604 99.5365 22.0443 99.6875 21.7578C99.8385 21.4766 99.9141 21.1354 99.9141 20.7344V14.5L100.133 12.5469ZM94.4453 16.875V16.7109C94.4453 16.0651 94.5234 15.4792 94.6797 14.9531C94.8411 14.4219 95.0677 13.9661 95.3594 13.5859C95.6562 13.2057 96.0156 12.9115 96.4375 12.7031C96.8594 12.4948 97.3359 12.3906 97.8672 12.3906C98.4297 12.3906 98.901 12.4948 99.2812 12.7031C99.6615 12.9115 99.974 13.2083 100.219 13.5938C100.464 13.974 100.654 14.4245 100.789 14.9453C100.93 15.4609 101.039 16.026 101.117 16.6406V17C101.039 17.5885 100.922 18.1354 100.766 18.6406C100.609 19.1458 100.404 19.5885 100.148 19.9688C99.8932 20.3438 99.5755 20.6354 99.1953 20.8438C98.8203 21.0521 98.3724 21.1562 97.8516 21.1562C97.3307 21.1562 96.8594 21.0495 96.4375 20.8359C96.0208 20.6224 95.6641 20.3229 95.3672 19.9375C95.0703 19.5521 94.8411 19.099 94.6797 18.5781C94.5234 18.0573 94.4453 17.4896 94.4453 16.875ZM96.6953 16.7109V16.875C96.6953 17.224 96.7292 17.5495 96.7969 17.8516C96.8646 18.1536 96.9688 18.4219 97.1094 18.6562C97.2552 18.8854 97.4349 19.0651 97.6484 19.1953C97.8672 19.3203 98.125 19.3828 98.4219 19.3828C98.8333 19.3828 99.1693 19.2969 99.4297 19.125C99.6901 18.9479 99.8854 18.7057 100.016 18.3984C100.146 18.0911 100.221 17.737 100.242 17.3359V16.3125C100.232 15.9844 100.188 15.6901 100.109 15.4297C100.031 15.1641 99.9219 14.9375 99.7812 14.75C99.6406 14.5625 99.4583 14.4167 99.2344 14.3125C99.0104 14.2083 98.7448 14.1562 98.4375 14.1562C98.1406 14.1562 97.8828 14.224 97.6641 14.3594C97.4505 14.4896 97.2708 14.6693 97.125 14.8984C96.9844 15.1276 96.8776 15.3984 96.8047 15.7109C96.7318 16.0182 96.6953 16.3516 96.6953 16.7109ZM106.125 14.3516V21H103.875V12.5469H105.984L106.125 14.3516ZM105.797 16.4766H105.188C105.188 15.8516 105.268 15.2891 105.43 14.7891C105.591 14.2839 105.818 13.8542 106.109 13.5C106.401 13.1406 106.747 12.8672 107.148 12.6797C107.555 12.487 108.008 12.3906 108.508 12.3906C108.904 12.3906 109.266 12.4479 109.594 12.5625C109.922 12.6771 110.203 12.8594 110.438 13.1094C110.677 13.3594 110.859 13.6901 110.984 14.1016C111.115 14.513 111.18 15.0156 111.18 15.6094V21H108.914V15.6016C108.914 15.2266 108.862 14.9349 108.758 14.7266C108.654 14.5182 108.5 14.3724 108.297 14.2891C108.099 14.2005 107.854 14.1562 107.562 14.1562C107.26 14.1562 106.997 14.2161 106.773 14.3359C106.555 14.4557 106.372 14.6224 106.227 14.8359C106.086 15.0443 105.979 15.2891 105.906 15.5703C105.833 15.8516 105.797 16.1536 105.797 16.4766ZM115.266 12.5469V21H113.008V12.5469H115.266ZM112.867 10.3438C112.867 10.0156 112.982 9.74479 113.211 9.53125C113.44 9.31771 113.747 9.21094 114.133 9.21094C114.513 9.21094 114.818 9.31771 115.047 9.53125C115.281 9.74479 115.398 10.0156 115.398 10.3438C115.398 10.6719 115.281 10.9427 115.047 11.1562C114.818 11.3698 114.513 11.4766 114.133 11.4766C113.747 11.4766 113.44 11.3698 113.211 11.1562C112.982 10.9427 112.867 10.6719 112.867 10.3438ZM121.266 12.5469V14.1406H116.344V12.5469H121.266ZM117.562 10.4609H119.812V18.4531C119.812 18.6979 119.844 18.8854 119.906 19.0156C119.974 19.1458 120.073 19.237 120.203 19.2891C120.333 19.3359 120.497 19.3594 120.695 19.3594C120.836 19.3594 120.961 19.3542 121.07 19.3438C121.185 19.3281 121.281 19.3125 121.359 19.2969L121.367 20.9531C121.174 21.0156 120.966 21.0651 120.742 21.1016C120.518 21.138 120.271 21.1562 120 21.1562C119.505 21.1562 119.073 21.0755 118.703 20.9141C118.339 20.7474 118.057 20.4818 117.859 20.1172C117.661 19.7526 117.562 19.2734 117.562 18.6797V10.4609ZM126.438 21.1562C125.781 21.1562 125.193 21.0521 124.672 20.8438C124.151 20.6302 123.708 20.3359 123.344 19.9609C122.984 19.5859 122.708 19.151 122.516 18.6562C122.323 18.1562 122.227 17.625 122.227 17.0625V16.75C122.227 16.1094 122.318 15.5234 122.5 14.9922C122.682 14.4609 122.943 14 123.281 13.6094C123.625 13.2188 124.042 12.9193 124.531 12.7109C125.021 12.4974 125.573 12.3906 126.188 12.3906C126.786 12.3906 127.318 12.4896 127.781 12.6875C128.245 12.8854 128.633 13.1667 128.945 13.5312C129.263 13.8958 129.503 14.3333 129.664 14.8438C129.826 15.349 129.906 15.9115 129.906 16.5312V17.4688H123.188V15.9688H127.695V15.7969C127.695 15.4844 127.638 15.2057 127.523 14.9609C127.414 14.7109 127.247 14.513 127.023 14.3672C126.799 14.2214 126.513 14.1484 126.164 14.1484C125.867 14.1484 125.612 14.2135 125.398 14.3438C125.185 14.474 125.01 14.6562 124.875 14.8906C124.745 15.125 124.646 15.401 124.578 15.7188C124.516 16.0312 124.484 16.375 124.484 16.75V17.0625C124.484 17.401 124.531 17.7135 124.625 18C124.724 18.2865 124.862 18.5339 125.039 18.7422C125.221 18.9505 125.44 19.112 125.695 19.2266C125.956 19.3411 126.25 19.3984 126.578 19.3984C126.984 19.3984 127.362 19.3203 127.711 19.1641C128.065 19.0026 128.37 18.7604 128.625 18.4375L129.719 19.625C129.542 19.8802 129.299 20.125 128.992 20.3594C128.69 20.5938 128.326 20.7865 127.898 20.9375C127.471 21.0833 126.984 21.1562 126.438 21.1562Z" fill="#00B37E"/>
<defs>
<linearGradient id="paint0_linear_299_645" x1="16" y1="0" x2="16" y2="32" gradientUnits="userSpaceOnUse">
<stop stop-color="#00B37E"/>
<stop offset="1" stop-color="#00B37E" stop-opacity="0.3"/>
</linearGradient>
</defs>
</svg>
