<svg width="252" height="24" viewBox="0 0 252 24" fill="none" xmlns="http://www.w3.org/2000/svg">
<path fill-rule="evenodd" clip-rule="evenodd" d="M0 12C0 5.37258 5.37258 0 12 0H57.551C62.9286 0 67.48 3.53725 69.0054 8.41194C69.2523 9.20097 69.9488 9.79592 70.7755 9.79592C71.6023 9.79592 72.2987 9.20097 72.5456 8.41194C74.071 3.53725 78.6224 0 84 0H239.265C245.893 0 251.265 5.37258 251.265 12C251.265 18.6274 245.893 24 239.265 24H84C78.6224 24 74.071 20.4628 72.5456 15.5881C72.2987 14.799 71.6023 14.2041 70.7755 14.2041C69.9488 14.2041 69.2523 14.799 69.0054 15.5881C67.48 20.4628 62.9286 24 57.551 24H12C5.37258 24 0 18.6274 0 12ZM142.985 17.4416C142.144 17.4416 141.486 17.3233 141.013 17.0839C140.539 16.846 140.208 16.4898 140.019 16.0125C139.83 15.5366 139.735 14.9484 139.735 14.2449V10.265C139.735 9.12262 139.989 8.28023 140.499 7.73933C141.008 7.19843 141.837 6.9265 142.986 6.9265H148.332C149.149 6.9265 149.773 6.97083 150.206 7.06099C150.637 7.14966 150.855 7.24276 150.855 7.33735L150.5 8.81818C150.299 8.78271 149.703 8.74428 148.715 8.70143C147.726 8.66004 146.291 8.63935 144.408 8.63935H143.502C142.555 8.63935 142.082 9.06203 142.082 9.90737V14.4592C142.082 14.8642 142.185 15.176 142.392 15.3962C142.599 15.6164 142.97 15.7258 143.502 15.7258H144.231C146.196 15.7258 147.722 15.7051 148.805 15.6637C149.888 15.6223 150.561 15.578 150.821 15.5292L151.549 16.7071C151.549 16.7662 151.452 16.8563 151.257 16.9746C151.062 17.0943 150.702 17.2007 150.182 17.2953C149.66 17.3898 148.91 17.4386 147.927 17.4386H142.989L142.985 17.4416ZM103.378 17.4415V8.37473L103.201 6.92937H111.069C111.827 6.92937 112.421 7.03134 112.854 7.23233C113.286 7.4348 113.607 7.69934 113.813 8.02595C114.02 8.35404 114.153 8.70134 114.212 9.07081C114.272 9.44028 114.301 9.79053 114.301 10.1245V11.1783C114.301 11.4517 114.26 11.7591 114.177 12.0975C114.094 12.4359 113.941 12.764 113.716 13.0788C113.491 13.3936 113.165 13.6567 112.739 13.8636C112.313 14.0719 111.756 14.1754 111.069 14.1754H109.257C108.511 14.1754 107.815 14.1576 107.17 14.1222C106.525 14.0867 106.043 14.0572 105.724 14.0335V17.443H103.38L103.378 17.4415ZM105.722 12.4611H110.553C111.087 12.4611 111.453 12.3295 111.654 12.0679C111.855 11.8064 111.956 11.4916 111.956 11.1221V9.99743C111.956 9.61614 111.855 9.29544 111.654 9.03386C111.453 8.77228 111.091 8.64075 110.571 8.64075H105.722V12.4611ZM86.4329 17.4415C85.6275 17.4415 85.0363 17.406 84.6565 17.3351C84.2782 17.2641 84.0875 17.1799 84.0875 17.0853L84.7984 15.5321C85.0703 15.5794 85.7487 15.6237 86.8319 15.6666C87.9152 15.7079 89.4049 15.7286 91.2996 15.7286H91.6365C92.1449 15.7286 92.507 15.637 92.7198 15.4523C92.9326 15.2675 93.039 14.9557 93.039 14.5153V14.1577C93.039 13.7409 92.9533 13.4438 92.7819 13.265C92.6104 13.0862 92.2277 12.9975 91.6365 12.9975H87.5162C86.3206 12.9975 85.4501 12.7744 84.9048 12.328C84.3595 11.8817 84.0875 11.1531 84.0875 10.1408V9.85557C84.0875 9.3324 84.1851 8.85061 84.3801 8.4102C84.5752 7.9698 84.9092 7.61659 85.3836 7.34761C85.8565 7.08012 86.5083 6.94563 87.3374 6.94563H92.1685C92.974 6.94563 93.6243 6.98701 94.1223 7.07125C94.6203 7.15401 94.8686 7.24416 94.8686 7.33875L94.5139 8.83879C94.2065 8.80332 93.5075 8.76489 92.4183 8.72204C91.3291 8.68065 89.866 8.65996 88.0305 8.65996L87.8354 8.64223C87.2901 8.64223 86.9236 8.75307 86.7344 8.9718C86.5452 9.192 86.4433 9.46836 86.4329 9.80236V10.1053C86.4329 10.4984 86.5423 10.7925 86.761 10.9891C86.9797 11.1857 87.3448 11.2832 87.8532 11.2832H91.7961C92.5543 11.2832 93.2001 11.36 93.7321 11.5152C94.2657 11.6704 94.6735 11.9527 94.9573 12.3635C95.241 12.7744 95.3829 13.3788 95.3829 14.1754V14.4606C95.3829 15.3533 95.1553 16.073 94.6987 16.6198C94.242 17.1666 93.4528 17.4415 92.3282 17.4415H86.4329ZM124.832 6.94563L119.629 17.4415H122.221L123.375 15.1744H129.735L130.782 17.4415H133.518L128.332 6.94563H124.832ZM129.078 13.4261H124.018L126.468 8.55356H126.646L129.078 13.4261ZM158.651 6.94563V17.4415H168.349C169.13 17.4415 169.682 17.4208 170.001 17.3794C170.32 17.3366 170.48 17.2922 170.48 17.2449L169.769 15.7272H160.995V12.8896H167.638V11.1221H160.995V8.65849H169.698V6.94563H158.651ZM181.154 17.4415L181.137 8.64222H176.518V6.92937H188.134V8.64222H183.498V17.4415H181.154ZM195.238 6.94563V17.4415H197.582V6.94563H195.238ZM205.931 17.4417V8.37493L205.754 6.94731H208.454L212.468 14.0869L216.624 6.94731H219.021V17.4432H216.677V10.7853H216.482L215.789 12.3386L213.551 16.3732H211.402L209.165 12.3386L208.454 10.7853H208.276V17.4432H205.933L205.931 17.4417ZM227.191 6.94563V17.4415H236.889C237.671 17.4415 238.222 17.4208 238.541 17.3794C238.861 17.3366 239.02 17.2922 239.02 17.2449L238.309 15.7272H229.535V12.8896H236.178V11.1221H229.535V8.65849H238.239V6.94563H227.191ZM15.6641 9.17989V11.7179V11.7193L12.28 13.0857L15.6641 14.459V16.9998L9.06215 14.3922H9.04853V11.7888H9.06215L15.6641 9.17989ZM54.1261 16.8649V14.3282L57.5074 12.9631L54.1261 11.598V9.05999L60.7184 11.6662H60.7348V14.2723H60.7184L54.1261 16.8649ZM51.2951 5.47294L47.4179 18.6918H49.7202L53.5975 5.47294H51.2951ZM26.3247 11.5069C26.3656 10.4728 26.0209 9.46471 25.3656 8.70043H25.367C25.0428 8.33941 24.649 8.05604 24.2131 7.8694C23.7771 7.68276 23.3099 7.59829 22.8399 7.61873C22.3358 7.59557 21.8331 7.68276 21.3617 7.87349C20.8903 8.06422 20.4598 8.35576 20.0988 8.72904V7.89392H17.7964V17.1374H20.0988V13.0436C20.0988 10.9197 20.8195 9.85843 22.2609 9.85843C22.502 9.84753 22.7431 9.89521 22.9652 9.99738C23.1859 10.0996 23.3834 10.2549 23.5415 10.4497C23.878 10.8952 24.0496 11.4551 24.0224 12.0246V17.1374H26.3247V11.5069ZM29.255 4.04947V17.2683H31.5574V4.04947H29.255ZM42.6455 16.7833H44.5651L47.7952 7.52348H45.3348L43.5215 13.0791L41.6538 7.52348H39.8582L37.9904 13.0614L36.1771 7.52348H33.7167L36.9441 16.7833H38.8623L40.7628 11.338L42.6455 16.7833Z" fill="url(#paint0_linear_299_614)"/>
<defs>
<linearGradient id="paint0_linear_299_614" x1="4.16327" y1="-7.98312" x2="282.764" y2="-7.98312" gradientUnits="userSpaceOnUse">
<stop offset="0.251308" stop-color="#996DFF"/>
<stop offset="0.623787" stop-color="#FF876E"/>
<stop offset="1" stop-color="#FFD072"/>
</linearGradient>
</defs>
</svg>
